<?xml version="1.0" standalone="no"?>
<!DOCTYPE svg PUBLIC "-//W3C//DTD SVG 20010904//EN"
 "http://www.w3.org/TR/2001/REC-SVG-20010904/DTD/svg10.dtd">
<svg version="1.0" xmlns="http://www.w3.org/2000/svg"
 width="700.000000pt" height="700.000000pt" viewBox="0 0 700.000000 700.000000"
 preserveAspectRatio="xMidYMid meet">
<metadata>
Created by potrace 1.14, written by Peter Selinger 2001-2017
</metadata>
<g transform="translate(0.000000,700.000000) scale(0.100000,-0.100000)"
fill="#000000" stroke="none">
<path d="M3179 6996 c-2 -2 -42 -7 -89 -10 -110 -8 -140 -13 -285 -43 -501
-104 -921 -286 -1334 -577 -615 -435 -1067 -1044 -1306 -1761 -31 -94 -66
-213 -71 -245 -3 -14 -9 -38 -14 -55 -5 -16 -12 -43 -15 -60 -2 -16 -14 -82
-25 -145 -12 -63 -25 -160 -30 -215 -9 -105 -6 -764 4 -825 3 -19 8 -57 11
-85 4 -27 10 -66 15 -85 5 -19 11 -53 14 -75 18 -131 101 -410 188 -630 33
-83 146 -322 177 -375 5 -8 28 -46 50 -83 23 -38 41 -70 41 -73 0 -5 170 -257
179 -264 3 -3 28 -34 56 -70 158 -206 449 -489 654 -635 23 -16 59 -43 79 -58
69 -53 289 -186 424 -255 267 -138 623 -261 918 -319 99 -19 256 -41 319 -44
126 -7 680 -4 771 3 258 22 620 114 910 233 97 39 317 143 370 174 242 143
338 207 475 315 50 39 95 75 101 81 6 5 38 34 72 63 76 66 196 186 276 276 33
38 66 74 71 80 140 155 353 481 464 709 122 251 228 545 266 737 2 8 8 33 14
55 5 22 13 56 16 75 3 19 8 42 10 50 2 8 6 31 9 50 3 19 11 76 18 125 14 100
18 760 5 880 -47 442 -205 922 -436 1325 -218 381 -508 722 -846 994 -483 389
-1048 639 -1670 738 -110 17 -186 21 -491 24 -199 1 -363 1 -365 0z"/>
</g>
</svg>
